<svg width="125" height="40" viewBox="0 0 125 40" xmlns="http://www.w3.org/2000/svg">
  <defs>
    <linearGradient id="logoGradient" x1="0%" y1="0%" x2="100%" y2="0%">
      <stop offset="0%" style="stop-color:#ff523b;stop-opacity:1" />
      <stop offset="100%" style="stop-color:#ff7563;stop-opacity:1" />
    </linearGradient>
  </defs>
  <style>
    .logo-text { font-family: 'Poppins', sans-serif; font-weight: 600; }
    .icon { fill: url(#logoGradient); }
  </style>
  <g transform="translate(5, 5)">
    <!-- Stylized G icon with shoe silhouette -->
    <path class="icon" d="M20 0C13.373 0 8 5.373 8 12c0 6.627 5.373 12 12 12s12-5.373 12-12h-6c0 3.314-2.686 6-6 6s-6-2.686-6-6c0-3.314 2.686-6 6-6 2.21 0 4.14 1.2 5.17 2.98L20 12V0z M15 8c0 1.105.895 2 2 2s2-.895 2-2-.895-2-2-2-2 .895-2 2z"/>
    <!-- GLANCE text -->
    <text x="35" y="20" class="logo-text" font-size="22" fill="#333">
      GLANCE
    </text>
  </g>
</svg>
  <style>
    .text { font-family: 'Arial', sans-serif; font-weight: bold; }
    .letter { fill: #333333; }
    .dot { fill: #ff4d4d; }
  </style>
  <text x="10" y="60" class="text letter" font-size="60">GLANCE</text>
  <circle cx="280" cy="20" r="8" class="dot"/>
</svg>